<?xml version="1.0" encoding="utf-8"?>
<!-- Generator: Adobe Illustrator 18.1.1, SVG Export Plug-In . SVG Version: 6.00 Build 0)  -->
<svg version="1.1" id="Capa_1" xmlns="http://www.w3.org/2000/svg" xmlns:xlink="http://www.w3.org/1999/xlink" x="0px" y="0px"
	 viewBox="0 0 320 480" enable-background="new 0 0 320 480" xml:space="preserve">
<rect fill="#68A7DD" width="320" height="142"/>
<rect y="429.5" fill="#68A7DD" width="160" height="50.5"/>
<rect x="164" y="429.5" fill="#68A7DD" width="156" height="50.5"/>
<g>
	<path fill="#FFFFFF" d="M48.1,11.8h3.5v17.4h-3.5V11.8z"/>
	<path fill="#FFFFFF" d="M59.9,11.8c1.4,0,2.1,0.8,2.1,2.1v8.3c0,1.3-0.5,2.3-2.5,2.3h-3v4.6h-3.5V11.8H59.9z M56.5,14.9v6.8h1.7
		c0.3,0,0.3-0.1,0.3-0.4v-6.1c0-0.2-0.1-0.3-0.3-0.3H56.5z"/>
	<path fill="#FFFFFF" d="M70.2,11.8c1.4,0,2.1,0.8,2.1,2.1v8.3c0,1.3-0.5,2.3-2.5,2.3h-3v4.6h-3.5V11.8H70.2z M66.8,14.9v6.8h1.7
		c0.3,0,0.3-0.1,0.3-0.4v-6.1c0-0.2-0.1-0.3-0.3-0.3H66.8z"/>
</g>
<g opacity="0.89">
	<g>
		<path fill="#2F5298" d="M87.9,277.4l-0.3-1.7h-1.7l-0.3,1.7c0,0.2-0.2,0.3-0.4,0.3h-0.8c-0.1,0-0.2,0-0.3-0.1
			c-0.1-0.1-0.1-0.2-0.1-0.3l1.6-8.1c0-0.2,0.2-0.3,0.4-0.3h1.6c0.2,0,0.4,0.1,0.4,0.3l1.6,8.1c0,0.1,0,0.2-0.1,0.3
			c-0.1,0.1-0.2,0.1-0.3,0.1h-0.9C88.1,277.7,88,277.6,87.9,277.4z M87.3,274.1l-0.5-2.7l-0.5,2.7H87.3z"/>
		<path fill="#2F5298" d="M93.6,277.7h-1.8c-0.4,0-0.8-0.2-1.2-0.5c-0.3-0.3-0.5-0.7-0.5-1.1v-5.6c0-0.4,0.2-0.8,0.5-1.2
			c0.3-0.3,0.7-0.5,1.2-0.5h1.8c0.4,0,0.8,0.2,1.2,0.5c0.3,0.3,0.5,0.7,0.5,1.2v0.3c0,0.3-0.1,0.4-0.4,0.4h-0.8
			c-0.3,0-0.4-0.1-0.4-0.4v-0.3h-1.8v5.6h1.8v-2h-0.7c-0.3,0-0.4-0.1-0.4-0.4v-0.8c0-0.3,0.1-0.4,0.4-0.4h2c0.3,0,0.4,0.1,0.4,0.4
			v3.2c0,0.4-0.2,0.8-0.5,1.2C94.5,277.6,94.1,277.7,93.6,277.7z"/>
		<path fill="#2F5298" d="M100,277.7h-2.3c-0.4,0-0.8-0.2-1.1-0.5c-0.3-0.3-0.5-0.7-0.5-1.1v-7c0-0.3,0.1-0.4,0.4-0.4h3.5
			c0.3,0,0.4,0.1,0.4,0.4v0.8c0,0.3-0.1,0.4-0.4,0.4h-2.2v2h1.8c0.3,0,0.4,0.1,0.4,0.4v0.8c0,0.3-0.1,0.4-0.4,0.4h-1.8v2h2.2
			c0.3,0,0.4,0.1,0.4,0.4v0.8C100.4,277.6,100.3,277.7,100,277.7z"/>
		<path fill="#2F5298" d="M104.5,277.5l-1.7-4.4v4.3c0,0.3-0.1,0.4-0.4,0.4h-0.8c-0.3,0-0.4-0.1-0.4-0.4v-8.1c0-0.3,0.1-0.4,0.4-0.4
			h1.1c0.2,0,0.3,0.1,0.4,0.3l1.7,4.4v-4.3c0-0.3,0.1-0.4,0.4-0.4h0.8c0.3,0,0.4,0.1,0.4,0.4v8.1c0,0.3-0.1,0.4-0.4,0.4l-1.1,0
			C104.7,277.7,104.6,277.7,104.5,277.5z"/>
		<path fill="#2F5298" d="M112.3,270.5v5.6c0,0.4-0.2,0.8-0.5,1.2c-0.3,0.3-0.7,0.5-1.2,0.5h-3.1c-0.3,0-0.4-0.1-0.4-0.4v-8.1
			c0-0.3,0.1-0.4,0.4-0.4h3.1c0.4,0,0.8,0.2,1.2,0.5S112.3,270,112.3,270.5z M110.7,276.1v-5.6h-1.8v5.6H110.7z"/>
		<path fill="#2F5298" d="M117.2,277.4l-0.3-1.7h-1.7l-0.3,1.7c0,0.2-0.2,0.3-0.4,0.3h-0.8c-0.1,0-0.2,0-0.3-0.1
			c-0.1-0.1-0.1-0.2-0.1-0.3l1.6-8.1c0-0.2,0.2-0.3,0.4-0.3h1.6c0.2,0,0.4,0.1,0.4,0.3l1.6,8.1c0,0.1,0,0.2-0.1,0.3
			c-0.1,0.1-0.2,0.1-0.3,0.1h-0.9C117.4,277.7,117.3,277.6,117.2,277.4z M116.6,274.1l-0.5-2.7l-0.5,2.7H116.6z"/>
	</g>
</g>
<g opacity="0.89">
	<g>
		<path fill="#FFFFFF" d="M38,462.1l-1.9-4.9v4.8c0,0.3-0.2,0.5-0.5,0.5h-0.9c-0.3,0-0.5-0.2-0.5-0.5v-9.1c0-0.3,0.2-0.5,0.5-0.5H36
			c0.2,0,0.3,0.1,0.4,0.3l1.9,4.9v-4.8c0-0.3,0.2-0.5,0.5-0.5h0.9c0.3,0,0.5,0.2,0.5,0.5v9.1c0,0.3-0.2,0.5-0.5,0.5l-1.2,0
			C38.3,462.4,38.1,462.3,38,462.1z"/>
		<path fill="#FFFFFF" d="M45,462.4h-2.1c-0.5,0-0.9-0.2-1.3-0.5c-0.4-0.4-0.6-0.8-0.6-1.3v-6.3c0-0.5,0.2-0.9,0.6-1.3
			s0.8-0.6,1.3-0.6H45c0.5,0,0.9,0.2,1.3,0.6c0.4,0.4,0.6,0.8,0.6,1.3v6.3c0,0.5-0.2,0.9-0.6,1.3C45.9,462.3,45.4,462.4,45,462.4z
			 M45,460.6v-6.3h-2.1v6.3H45z"/>
		<path fill="#FFFFFF" d="M52.7,454.3h-1.4v7.7c0,0.3-0.2,0.5-0.5,0.5H50c-0.3,0-0.5-0.2-0.5-0.5v-7.7h-1.4c-0.3,0-0.5-0.2-0.5-0.5
			v-0.9c0-0.3,0.2-0.5,0.5-0.5h4.6c0.3,0,0.5,0.2,0.5,0.5v0.9C53.2,454.2,53.1,454.3,52.7,454.3z"/>
		<path fill="#FFFFFF" d="M55.5,462.4h-0.9c-0.3,0-0.5-0.2-0.5-0.5v-9.1c0-0.3,0.2-0.5,0.5-0.5h0.9c0.3,0,0.5,0.2,0.5,0.5v9.1
			C55.9,462.3,55.8,462.4,55.5,462.4z"/>
		<path fill="#FFFFFF" d="M61.8,462c-0.3,0.3-0.7,0.4-1.1,0.4h-2c-0.5,0-0.9-0.2-1.3-0.5c-0.4-0.4-0.6-0.8-0.6-1.3v-6.3
			c0-0.5,0.2-0.9,0.6-1.3s0.8-0.6,1.3-0.6h1.9c0.5,0,0.9,0.2,1.3,0.6c0.4,0.4,0.6,0.8,0.6,1.3v0.3c0,0.3-0.2,0.5-0.5,0.5h-0.9
			c-0.3,0-0.5-0.2-0.5-0.5v-0.3h-2v6.3h2v-0.3c0-0.3,0.2-0.5,0.5-0.5H62c0.3,0,0.5,0.2,0.5,0.5v0.3C62.5,461.1,62.3,461.6,61.8,462z
			"/>
		<path fill="#FFFFFF" d="M64.8,462.4h-0.9c-0.3,0-0.5-0.2-0.5-0.5v-9.1c0-0.3,0.2-0.5,0.5-0.5h0.9c0.3,0,0.5,0.2,0.5,0.5v9.1
			C65.2,462.3,65.1,462.4,64.8,462.4z"/>
		<path fill="#FFFFFF" d="M70.7,462.1l-0.4-1.9h-1.9l-0.4,1.9c-0.1,0.2-0.2,0.4-0.5,0.4h-0.9c-0.1,0-0.3-0.1-0.4-0.2
			c-0.1-0.1-0.1-0.2-0.1-0.4l1.8-9.1c0-0.2,0.2-0.4,0.4-0.4h1.8c0.2,0,0.4,0.1,0.5,0.4l1.8,9.1c0,0.1,0,0.3-0.1,0.4
			c-0.1,0.1-0.2,0.2-0.3,0.2h-1C70.9,462.4,70.7,462.3,70.7,462.1z M69.9,458.4l-0.6-3l-0.6,3H69.9z"/>
		<path fill="#FFFFFF" d="M77.1,462.4h-1.9c-0.5,0-0.9-0.2-1.3-0.5c-0.4-0.4-0.6-0.8-0.6-1.3v-0.3c0-0.3,0.2-0.5,0.5-0.5h0.9
			c0.3,0,0.5,0.2,0.5,0.5v0.3h1.9v-2.2h-1.9c-0.5,0-0.9-0.2-1.3-0.6s-0.6-0.8-0.6-1.3v-2.2c0-0.5,0.2-0.9,0.6-1.3s0.8-0.6,1.3-0.6
			h1.9c0.5,0,0.9,0.2,1.3,0.6s0.6,0.8,0.6,1.3v0.3c0,0.3-0.2,0.5-0.5,0.5h-0.9c-0.3,0-0.5-0.2-0.5-0.5v-0.3h-1.9v2.2h1.9
			c0.5,0,0.9,0.2,1.3,0.6s0.6,0.8,0.6,1.3v2.2c0,0.5-0.2,0.9-0.6,1.3C78.1,462.3,77.6,462.4,77.1,462.4z"/>
	</g>
</g>
<g opacity="0.89">
	<g>
		<path fill="#FFFFFF" d="M205.7,459.7h-1.9v2.9c0,0.3-0.2,0.5-0.5,0.5h-0.9c-0.3,0-0.5-0.2-0.5-0.5v-9.1c0-0.3,0.2-0.5,0.5-0.5h3.2
			c0.5,0,0.9,0.2,1.3,0.6s0.6,0.8,0.6,1.3v2.9c0,0.5-0.2,0.9-0.6,1.3S206.2,459.7,205.7,459.7z M205.7,457.9V455h-1.9v2.9H205.7z"/>
		<path fill="#FFFFFF" d="M213,462.7l-0.4-1.9h-1.9l-0.4,1.9c-0.1,0.2-0.2,0.4-0.5,0.4h-0.9c-0.1,0-0.3-0.1-0.4-0.2
			c-0.1-0.1-0.1-0.2-0.1-0.4l1.8-9.1c0-0.2,0.2-0.4,0.4-0.4h1.8c0.2,0,0.4,0.1,0.5,0.4l1.8,9.1c0,0.1,0,0.3-0.1,0.4
			c-0.1,0.1-0.2,0.2-0.3,0.2h-1C213.2,463.1,213,463,213,462.7z M212.3,459l-0.6-3l-0.6,3H212.3z"/>
		<path fill="#FFFFFF" d="M219.6,463.1h-2c-0.5,0-0.9-0.2-1.3-0.5c-0.4-0.4-0.6-0.8-0.6-1.3V455c0-0.5,0.2-0.9,0.6-1.3
			c0.4-0.4,0.8-0.6,1.3-0.6h2c0.5,0,0.9,0.2,1.3,0.6c0.4,0.4,0.6,0.8,0.6,1.3v0.3c0,0.3-0.1,0.5-0.5,0.5h-0.9
			c-0.3,0-0.5-0.2-0.5-0.5V455h-2v6.3h2V459h-0.8c-0.3,0-0.5-0.2-0.5-0.5v-0.9c0-0.3,0.2-0.5,0.5-0.5h2.2c0.3,0,0.5,0.2,0.5,0.5v3.6
			c0,0.5-0.2,0.9-0.6,1.3C220.5,462.9,220.1,463.1,219.6,463.1z"/>
		<path fill="#FFFFFF" d="M226.3,463.1h-2.1c-0.5,0-0.9-0.2-1.3-0.5c-0.4-0.4-0.6-0.8-0.6-1.3V455c0-0.5,0.2-0.9,0.6-1.3
			s0.8-0.6,1.3-0.6h2.1c0.5,0,0.9,0.2,1.3,0.6c0.4,0.4,0.6,0.8,0.6,1.3v6.3c0,0.5-0.2,0.9-0.6,1.3
			C227.2,462.9,226.8,463.1,226.3,463.1z M226.3,461.3V455h-2.1v6.3H226.3z"/>
		<path fill="#FFFFFF" d="M232.7,463.1h-1.9c-0.5,0-0.9-0.2-1.3-0.5c-0.4-0.4-0.6-0.8-0.6-1.3v-0.3c0-0.3,0.2-0.5,0.5-0.5h0.9
			c0.3,0,0.5,0.2,0.5,0.5v0.3h1.9V459h-1.9c-0.5,0-0.9-0.2-1.3-0.6s-0.6-0.8-0.6-1.3V455c0-0.5,0.2-0.9,0.6-1.3s0.8-0.6,1.3-0.6h1.9
			c0.5,0,0.9,0.2,1.3,0.6s0.6,0.8,0.6,1.3v0.3c0,0.3-0.2,0.5-0.5,0.5h-0.9c-0.3,0-0.5-0.2-0.5-0.5V455h-1.9v2.2h1.9
			c0.5,0,0.9,0.2,1.3,0.6s0.6,0.8,0.6,1.3v2.2c0,0.5-0.2,0.9-0.6,1.3C233.6,462.9,233.2,463.1,232.7,463.1z"/>
	</g>
</g>
<g opacity="0.89">
	<g>
		<path fill="#2F5298" d="M203.4,277.5l-1.7-4.4v4.3c0,0.3-0.1,0.4-0.4,0.4h-0.8c-0.3,0-0.4-0.1-0.4-0.4v-8.1c0-0.3,0.1-0.4,0.4-0.4
			h1.1c0.2,0,0.3,0.1,0.4,0.3l1.7,4.4v-4.3c0-0.3,0.1-0.4,0.4-0.4h0.8c0.3,0,0.4,0.1,0.4,0.4v8.1c0,0.3-0.1,0.4-0.4,0.4l-1.1,0
			C203.6,277.7,203.5,277.7,203.4,277.5z"/>
		<path fill="#2F5298" d="M209.6,277.7h-1.9c-0.4,0-0.8-0.2-1.2-0.5c-0.3-0.3-0.5-0.7-0.5-1.1v-5.6c0-0.4,0.2-0.8,0.5-1.1
			c0.3-0.3,0.7-0.5,1.2-0.5h1.9c0.4,0,0.8,0.2,1.2,0.5c0.3,0.3,0.5,0.7,0.5,1.2v5.6c0,0.4-0.2,0.8-0.5,1.2
			C210.4,277.6,210,277.7,209.6,277.7z M209.6,276.1v-5.6h-1.9v5.6H209.6z"/>
		<path fill="#2F5298" d="M216.6,270.5h-1.2v6.9c0,0.3-0.1,0.4-0.4,0.4h-0.8c-0.3,0-0.4-0.1-0.4-0.4v-6.9h-1.2
			c-0.3,0-0.4-0.1-0.4-0.4v-0.8c0-0.3,0.1-0.4,0.4-0.4h4.1c0.3,0,0.4,0.1,0.4,0.4v0.8C217,270.3,216.8,270.5,216.6,270.5z"/>
		<path fill="#2F5298" d="M220.3,277.4l-0.3-1.7h-1.7l-0.3,1.7c0,0.2-0.2,0.3-0.4,0.3h-0.8c-0.1,0-0.2,0-0.3-0.1
			c-0.1-0.1-0.1-0.2-0.1-0.3l1.6-8.1c0-0.2,0.2-0.3,0.4-0.3h1.6c0.2,0,0.4,0.1,0.4,0.3l1.6,8.1c0,0.1,0,0.2-0.1,0.3
			c-0.1,0.1-0.2,0.1-0.3,0.1h-0.9C220.5,277.7,220.3,277.6,220.3,277.4z M219.6,274.1l-0.5-2.7l-0.5,2.7H219.6z"/>
		<path fill="#2F5298" d="M226.1,277.7h-1.7c-0.4,0-0.8-0.2-1.2-0.5c-0.3-0.3-0.5-0.7-0.5-1.2v-0.3c0-0.3,0.1-0.4,0.4-0.4h0.8
			c0.3,0,0.4,0.1,0.4,0.4v0.3h1.7v-2h-1.7c-0.4,0-0.8-0.2-1.2-0.5c-0.3-0.3-0.5-0.7-0.5-1.2v-2c0-0.4,0.2-0.8,0.5-1.2
			c0.3-0.3,0.7-0.5,1.2-0.5h1.7c0.4,0,0.8,0.2,1.2,0.5c0.3,0.3,0.5,0.7,0.5,1.1v0.3c0,0.3-0.1,0.4-0.4,0.4h-0.8
			c-0.3,0-0.4-0.1-0.4-0.4v-0.3h-1.7v2h1.7c0.4,0,0.8,0.2,1.2,0.5c0.3,0.3,0.5,0.7,0.5,1.1v2c0,0.4-0.2,0.8-0.5,1.2
			C226.9,277.6,226.5,277.7,226.1,277.7z"/>
	</g>
</g>
<g opacity="0.89">
	<g>
		<path fill="#2F5298" d="M94.6,396.3h-0.8c-0.3,0-0.4-0.1-0.4-0.4v-3.2h-1.9v3.2c0,0.3-0.1,0.4-0.4,0.4h-0.8
			c-0.3,0-0.4-0.1-0.4-0.4v-8.1c0-0.3,0.1-0.4,0.4-0.4h0.8c0.3,0,0.4,0.1,0.4,0.4v3.2h1.9v-3.2c0-0.3,0.1-0.4,0.4-0.4h0.8
			c0.3,0,0.4,0.1,0.4,0.4v8.1C95.1,396.2,94.9,396.3,94.6,396.3z"/>
		<path fill="#2F5298" d="M99.4,396.3h-1.9c-0.4,0-0.8-0.2-1.2-0.5c-0.3-0.3-0.5-0.7-0.5-1.1v-5.6c0-0.4,0.2-0.8,0.5-1.1
			c0.3-0.3,0.7-0.5,1.2-0.5h1.9c0.4,0,0.8,0.2,1.2,0.5s0.5,0.7,0.5,1.2v5.6c0,0.4-0.2,0.8-0.5,1.2
			C100.2,396.2,99.8,396.3,99.4,396.3z M99.4,394.7v-5.6h-1.9v5.6H99.4z"/>
		<path fill="#2F5298" d="M106.5,396.3h-0.9c-0.2,0-0.3-0.1-0.4-0.3l-1.3-3.4h-0.5v3.2c0,0.3-0.1,0.4-0.4,0.4h-0.8
			c-0.3,0-0.4-0.1-0.4-0.4v-8.1c0-0.3,0.1-0.4,0.4-0.4h2.9c0.4,0,0.8,0.2,1.2,0.5c0.3,0.3,0.5,0.7,0.5,1.2v2c0,0.3-0.1,0.7-0.3,0.9
			s-0.5,0.5-0.8,0.6l1.2,3.2c0.1,0.1,0,0.3,0,0.4C106.8,396.3,106.7,396.3,106.5,396.3z M105.2,391v-2h-1.7v2H105.2z"/>
		<path fill="#2F5298" d="M111.9,396l-0.3-1.7h-1.7l-0.3,1.7c0,0.2-0.2,0.3-0.4,0.3h-0.8c-0.1,0-0.2,0-0.3-0.1
			c-0.1-0.1-0.1-0.2-0.1-0.3l1.6-8.1c0-0.2,0.2-0.3,0.4-0.3h1.6c0.2,0,0.4,0.1,0.4,0.3l1.6,8.1c0,0.1,0,0.2-0.1,0.3
			c-0.1,0.1-0.2,0.1-0.3,0.1h-0.9C112.1,396.3,111.9,396.2,111.9,396z M111.2,392.7l-0.5-2.7l-0.5,2.7H111.2z"/>
		<path fill="#2F5298" d="M119.1,396.3h-0.9c-0.2,0-0.3-0.1-0.4-0.3l-1.3-3.4H116v3.2c0,0.3-0.1,0.4-0.4,0.4h-0.8
			c-0.3,0-0.4-0.1-0.4-0.4v-8.1c0-0.3,0.1-0.4,0.4-0.4h2.9c0.4,0,0.8,0.2,1.2,0.5c0.3,0.3,0.5,0.7,0.5,1.2v2c0,0.3-0.1,0.7-0.3,0.9
			s-0.5,0.5-0.8,0.6l1.2,3.2c0.1,0.1,0,0.3,0,0.4C119.3,396.3,119.2,396.3,119.1,396.3z M117.7,391v-2H116v2H117.7z"/>
		<path fill="#2F5298" d="M121.6,396.3h-0.8c-0.3,0-0.4-0.1-0.4-0.4v-8.1c0-0.3,0.1-0.4,0.4-0.4h0.8c0.3,0,0.4,0.1,0.4,0.4v8.1
			C122,396.2,121.9,396.3,121.6,396.3z"/>
		<path fill="#2F5298" d="M126.3,396.3h-1.9c-0.4,0-0.8-0.2-1.2-0.5c-0.3-0.3-0.5-0.7-0.5-1.1v-5.6c0-0.4,0.2-0.8,0.5-1.1
			c0.3-0.3,0.7-0.5,1.2-0.5h1.9c0.4,0,0.8,0.2,1.2,0.5s0.5,0.7,0.5,1.2v5.6c0,0.4-0.2,0.8-0.5,1.2
			C127.1,396.2,126.7,396.3,126.3,396.3z M126.3,394.7v-5.6h-1.9v5.6H126.3z"/>
	</g>
</g>
<g opacity="0.89">
	<g>
		<path fill="#2F5298" d="M196.8,396l-0.3-1.7h-1.7l-0.3,1.7c0,0.2-0.2,0.3-0.4,0.3h-0.8c-0.1,0-0.2,0-0.3-0.1
			c-0.1-0.1-0.1-0.2-0.1-0.3l1.6-8.1c0-0.2,0.2-0.3,0.4-0.3h1.6c0.2,0,0.4,0.1,0.4,0.3l1.6,8.1c0,0.1,0,0.2-0.1,0.3
			c-0.1,0.1-0.2,0.1-0.3,0.1h-0.9C197,396.3,196.9,396.2,196.8,396z M196.2,392.7l-0.5-2.7l-0.5,2.7H196.2z"/>
		<path fill="#2F5298" d="M202.6,396.3H201c-0.4,0-0.8-0.2-1.2-0.5c-0.3-0.3-0.5-0.7-0.5-1.2v-0.3c0-0.3,0.1-0.4,0.4-0.4h0.8
			c0.3,0,0.4,0.1,0.4,0.4v0.3h1.7v-2H201c-0.4,0-0.8-0.2-1.2-0.5c-0.3-0.3-0.5-0.7-0.5-1.2v-2c0-0.4,0.2-0.8,0.5-1.2
			c0.3-0.3,0.7-0.5,1.2-0.5h1.7c0.4,0,0.8,0.2,1.2,0.5c0.3,0.3,0.5,0.7,0.5,1.1v0.3c0,0.3-0.1,0.4-0.4,0.4H203
			c-0.3,0-0.4-0.1-0.4-0.4v-0.3H201v2h1.7c0.4,0,0.8,0.2,1.2,0.5c0.3,0.3,0.5,0.7,0.5,1.1v2c0,0.4-0.2,0.8-0.5,1.2
			C203.5,396.2,203.1,396.3,202.6,396.3z"/>
		<path fill="#2F5298" d="M206.3,396.3h-0.8c-0.3,0-0.4-0.1-0.4-0.4v-8.1c0-0.3,0.1-0.4,0.4-0.4h0.8c0.3,0,0.4,0.1,0.4,0.4v8.1
			C206.7,396.2,206.6,396.3,206.3,396.3z"/>
		<path fill="#2F5298" d="M210.8,396.3h-1.7c-0.4,0-0.8-0.2-1.2-0.5c-0.3-0.3-0.5-0.7-0.5-1.2v-0.3c0-0.3,0.1-0.4,0.4-0.4h0.8
			c0.3,0,0.4,0.1,0.4,0.4v0.3h1.7v-2h-1.7c-0.4,0-0.8-0.2-1.2-0.5c-0.3-0.3-0.5-0.7-0.5-1.2v-2c0-0.4,0.2-0.8,0.5-1.2
			c0.3-0.3,0.7-0.5,1.2-0.5h1.7c0.4,0,0.8,0.2,1.2,0.5c0.3,0.3,0.5,0.7,0.5,1.1v0.3c0,0.3-0.1,0.4-0.4,0.4h-0.8
			c-0.3,0-0.4-0.1-0.4-0.4v-0.3h-1.7v2h1.7c0.4,0,0.8,0.2,1.2,0.5c0.3,0.3,0.5,0.7,0.5,1.1v2c0,0.4-0.2,0.8-0.5,1.2
			C211.7,396.2,211.3,396.3,210.8,396.3z"/>
		<path fill="#2F5298" d="M217.8,389.1h-1.2v6.9c0,0.3-0.1,0.4-0.4,0.4h-0.8c-0.3,0-0.4-0.1-0.4-0.4v-6.9h-1.2
			c-0.3,0-0.4-0.1-0.4-0.4v-0.8c0-0.3,0.1-0.4,0.4-0.4h4.1c0.3,0,0.4,0.1,0.4,0.4v0.8C218.2,388.9,218.1,389.1,217.8,389.1z"/>
		<path fill="#2F5298" d="M222.9,396.3h-2.3c-0.4,0-0.8-0.2-1.1-0.5c-0.3-0.3-0.5-0.7-0.5-1.1v-7c0-0.3,0.1-0.4,0.4-0.4h3.5
			c0.3,0,0.4,0.1,0.4,0.4v0.8c0,0.3-0.1,0.4-0.4,0.4h-2.2v2h1.8c0.3,0,0.4,0.1,0.4,0.4v0.8c0,0.3-0.1,0.4-0.4,0.4h-1.8v2h2.2
			c0.3,0,0.4,0.1,0.4,0.4v0.8C223.3,396.2,223.2,396.3,222.9,396.3z"/>
		<path fill="#2F5298" d="M227.5,396.1l-1.7-4.4v4.3c0,0.3-0.1,0.4-0.4,0.4h-0.8c-0.3,0-0.4-0.1-0.4-0.4v-8.1c0-0.3,0.1-0.4,0.4-0.4
			h1.1c0.2,0,0.3,0.1,0.4,0.3l1.7,4.4v-4.3c0-0.3,0.1-0.4,0.4-0.4h0.8c0.3,0,0.4,0.1,0.4,0.4v8.1c0,0.3-0.1,0.4-0.4,0.4l-1.1,0
			C227.6,396.3,227.5,396.3,227.5,396.1z"/>
		<path fill="#2F5298" d="M234.5,396c-0.3,0.3-0.6,0.4-1,0.4h-1.8c-0.4,0-0.8-0.2-1.2-0.5c-0.3-0.3-0.5-0.7-0.5-1.2v-5.6
			c0-0.4,0.2-0.8,0.5-1.1c0.3-0.3,0.7-0.5,1.2-0.5h1.7c0.4,0,0.8,0.2,1.2,0.5s0.5,0.7,0.5,1.2v0.3c0,0.3-0.1,0.4-0.4,0.4h-0.8
			c-0.3,0-0.4-0.1-0.4-0.4v-0.3h-1.8v5.6h1.8v-0.3c0-0.3,0.1-0.4,0.4-0.4h0.8c0.3,0,0.4,0.1,0.4,0.4v0.3
			C235.2,395.2,235,395.6,234.5,396z"/>
		<path fill="#2F5298" d="M237.2,396.3h-0.8c-0.3,0-0.4-0.1-0.4-0.4v-8.1c0-0.3,0.1-0.4,0.4-0.4h0.8c0.3,0,0.4,0.1,0.4,0.4v8.1
			C237.6,396.2,237.5,396.3,237.2,396.3z"/>
		<path fill="#2F5298" d="M242.5,396l-0.3-1.7h-1.7l-0.3,1.7c0,0.2-0.2,0.3-0.4,0.3h-0.8c-0.1,0-0.2,0-0.3-0.1
			c-0.1-0.1-0.1-0.2-0.1-0.3l1.6-8.1c0-0.2,0.2-0.3,0.4-0.3h1.6c0.2,0,0.4,0.1,0.4,0.3l1.6,8.1c0,0.1,0,0.2-0.1,0.3
			c-0.1,0.1-0.2,0.1-0.3,0.1h-0.9C242.7,396.3,242.6,396.2,242.5,396z M241.9,392.7l-0.5-2.7l-0.5,2.7H241.9z"/>
	</g>
</g>
<g>
	<g>
		<g>
			<g>
				<path fill="#FFFFFF" d="M38.5,15.6H12.3c0,0-1.3,0-1.3-2.3s1.3-2.3,1.3-2.3h26.2c0,0,1.3,0,1.3,2.3S38.5,15.6,38.5,15.6z"/>
				<path fill="#FFFFFF" d="M38.5,22.4H12.3c0,0-1.3,0-1.3-2.3s1.3-2.3,1.3-2.3h26.2c0,0,1.3,0,1.3,2.3
					C39.9,22.4,38.5,22.4,38.5,22.4z"/>
				<path fill="#FFFFFF" d="M38.5,29.2H12.3c0,0-1.3,0-1.3-2.3c0-2.3,1.3-2.3,1.3-2.3h26.2c0,0,1.3,0,1.3,2.3
					C39.9,29.2,38.5,29.2,38.5,29.2z"/>
			</g>
		</g>
	</g>
</g>
<g>
	<path fill="#FFFFFF" d="M58.4,84.1c0,0.3-0.1,0.6-0.3,0.7c-0.2,0.2-0.4,0.3-0.7,0.3h-4.8V70.6h4.8c0.3,0,0.5,0.1,0.7,0.3
		c0.2,0.2,0.3,0.4,0.3,0.7v4.3c0,0.4-0.2,0.7-0.5,1c-0.3,0.2-0.7,0.4-1,0.6l1.1,0.7c0.3,0.2,0.5,0.5,0.5,0.9V84.1z M57.1,76.1v-4.4
		h-3.2v5.2h1.9L57.1,76.1z M57.1,83.9v-5l-1.3-0.9h-1.9v5.9H57.1z"/>
	<path fill="#FFFFFF" d="M61.8,74.1h-1.3v-1.6h1.3V74.1z M61.8,85.1h-1.2v-9h1.2V85.1z"/>
	<path fill="#FFFFFF" d="M68.9,84c0,0.7-0.3,1-1,1h-3c-0.7,0-1-0.3-1-1v-6.9c0-0.7,0.3-1,1-1h3c0.7,0,1,0.3,1,1v3.2l-0.4,0.4h-3.4
		v3.3h2.7v-1.7h1.2V84z M67.7,79.8v-2.7h-2.7v2.7H67.7z"/>
	<path fill="#FFFFFF" d="M76.2,85.1h-1.2v-7.9l-2.7,0.1v7.8H71v-9h1.2v0.3c0.5-0.1,1-0.1,1.5-0.2c0.6-0.1,1.1-0.1,1.5-0.1
		c0.7,0,1,0.3,1,1V85.1z"/>
	<path fill="#FFFFFF" d="M83.2,76.1l-2.2,9h-1.1l-2.2-9h1.3l1.5,7.1l1.6-7.1H83.2z"/>
	<path fill="#FFFFFF" d="M89.8,84c0,0.7-0.3,1-1,1h-3c-0.7,0-1-0.3-1-1v-6.9c0-0.7,0.3-1,1-1h3c0.7,0,1,0.3,1,1v3.2l-0.4,0.4H86v3.3
		h2.7v-1.7h1.2V84z M88.6,79.8v-2.7H86v2.7H88.6z"/>
	<path fill="#FFFFFF" d="M97,85.1h-1.2v-7.9l-2.7,0.1v7.8h-1.2v-9h1.2v0.3c0.5-0.1,1-0.1,1.5-0.2C95.1,76,95.6,76,96,76
		c0.7,0,1,0.3,1,1V85.1z"/>
	<path fill="#FFFFFF" d="M100.3,74.1h-1.3v-1.6h1.3V74.1z M100.3,85.1h-1.2v-9h1.2V85.1z"/>
	<path fill="#FFFFFF" d="M107.5,85.1h-1.2v-0.3c-1.3,0.2-2.1,0.3-2.2,0.3c-0.5,0-1-0.2-1.3-0.5c-0.3-0.4-0.5-0.8-0.5-1.3V78
		c0-0.6,0.2-1,0.5-1.4c0.4-0.4,0.8-0.6,1.4-0.6h2v-5.5h1.2V85.1z M106.3,84v-6.8h-1.7c-0.7,0-1,0.3-1,1V83c0,0.7,0.3,1,1,1
		C104.8,84.1,105.3,84,106.3,84z"/>
	<path fill="#FFFFFF" d="M114.7,85.1h-1.2v-0.3c-0.5,0.1-1,0.1-1.5,0.2c-0.6,0.1-1.1,0.1-1.5,0.1c-0.7,0-1-0.3-1-1v-3.3
		c0-0.7,0.3-1,1-1h2.9v-2.7h-2.7v1.5h-1.2v-1.5c0-0.7,0.3-1,1-1h3c0.7,0,1,0.3,1,1V85.1z M113.5,84v-3.2h-2.8V84L113.5,84z"/>
	<path fill="#FFFFFF" d="M61.1,111.5h-1.4v-10.6c0-0.2,0-0.6,0.2-1.3l-2.8,10.4h-0.3L54,99.5c0.1,0.7,0.2,1.2,0.2,1.3v10.6h-1.4
		V94.7h1.4l2.7,10.9c0,0.1,0,0.2,0,0.5c0-0.1,0-0.3,0-0.5l2.7-10.9h1.4V111.5z"/>
	<path fill="#FFFFFF" d="M69.5,111.5h-1.4v-0.3c-0.6,0.1-1.1,0.2-1.7,0.2c-0.7,0.1-1.3,0.1-1.7,0.1c-0.8,0-1.2-0.4-1.2-1.2v-3.8
		c0-0.8,0.4-1.2,1.2-1.2h3.4v-3.1H65v1.8h-1.4v-1.8c0-0.8,0.4-1.2,1.2-1.2h3.4c0.8,0,1.2,0.4,1.2,1.2V111.5z M68.1,110.2v-3.7h-3.2
		v3.8L68.1,110.2z"/>
	<path fill="#FFFFFF" d="M77.3,104.5h-1.4v-2.2l-2.6,0.1v9.1h-1.4V101h1.4v0.3c0.5-0.1,0.9-0.1,1.4-0.2c0.6-0.1,1-0.1,1.4-0.1
		c0.8,0,1.2,0.4,1.2,1.2V104.5z"/>
	<path fill="#FFFFFF" d="M80.6,98.7h-1.5v-1.8h1.5V98.7z M80.6,111.5h-1.4V101h1.4V111.5z"/>
	<path fill="#FFFFFF" d="M84.5,111.5h-1.4V94.7h1.4V111.5z"/>
	<path fill="#FFFFFF" d="M88.5,98.7H87v-1.8h1.5V98.7z M88.5,111.5h-1.4V101h1.4V111.5z"/>
	<path fill="#FFFFFF" d="M96.8,111.5h-1.4v-0.3c-0.6,0.1-1.1,0.2-1.7,0.2c-0.7,0.1-1.3,0.1-1.7,0.1c-0.8,0-1.2-0.4-1.2-1.2v-3.8
		c0-0.8,0.4-1.2,1.2-1.2h3.4v-3.1h-3.1v1.8H91v-1.8c0-0.8,0.4-1.2,1.2-1.2h3.4c0.8,0,1.2,0.4,1.2,1.2V111.5z M95.4,110.2v-3.7h-3.2
		v3.8L95.4,110.2z"/>
	<path fill="#FFFFFF" d="M110.8,111.5h-1.6l-3.1-9l0.2-0.3h2.7V96h-3.8v15.5h-1.5V94.7h5.6c0.4,0,0.6,0.1,0.9,0.3
		c0.2,0.2,0.3,0.5,0.3,0.9v6.4c0,0.8-0.5,1.2-1.6,1.2c-0.1,0-0.3,0-0.5,0s-0.4,0-0.5,0C108.9,106.1,109.8,108.8,110.8,111.5z"/>
	<path fill="#FFFFFF" d="M118.8,111.5h-1.4v-0.3c-0.6,0.1-1.1,0.2-1.7,0.2c-0.7,0.1-1.3,0.1-1.7,0.1c-0.8,0-1.2-0.4-1.2-1.2V101h1.4
		v9.2l3.2-0.1V101h1.4V111.5z"/>
	<path fill="#FFFFFF" d="M122.7,98.7h-1.5v-1.8h1.5V98.7z M122.6,111.5h-1.4V101h1.4V111.5z"/>
	<path fill="#FFFFFF" d="M130.1,111.5h-5.5v-0.7l3.8-8.5H125V101h5.1v0.7l-3.8,8.5h3.8V111.5z"/>
</g>
<circle fill="#2F5298" cx="223.7" cy="80.6" r="41.7"/>
<g>
	<g>
		<path fill="#FFFFFF" d="M223.8,78.9c6,0,10.9-5.9,10.9-13.2c0-7.3-1.6-13.2-10.9-13.2c-9.3,0-10.9,5.9-10.9,13.2
			C213,73,217.8,78.9,223.8,78.9z"/>
		<path fill="#FFFFFF" d="M203.3,99.1C203.3,98.6,203.3,98.9,203.3,99.1L203.3,99.1z"/>
		<path fill="#FFFFFF" d="M244.3,99.4C244.3,99.3,244.3,98.6,244.3,99.4L244.3,99.4z"/>
		<path fill="#FFFFFF" d="M244.3,98.5c-0.2-12.7-1.9-16.3-14.6-18.6c0,0-1.8,2.3-6,2.3c-4.2,0-6-2.3-6-2.3
			c-12.6,2.3-14.3,5.8-14.5,18.2c0,1,0,1.1,0,0.9c0,0.2,0,0.6,0,1.3c0,0,3,6.1,20.5,6.1c17.5,0,20.5-6.1,20.5-6.1c0-0.5,0-0.8,0-1
			C244.3,99.5,244.3,99.3,244.3,98.5z"/>
	</g>
</g>
<g>
	<g>
		<g>
			<path fill="#FFFFFF" d="M152.2,104.4c-0.2,0-0.3,0.1-0.3,0.3v5.9c0,0.6-0.5,1.1-1.1,1.1h-7c-0.6,0-1.1-0.5-1.1-1.1v-7
				c0-0.6,0.5-1.1,1.1-1.1h7c0.2,0,0.3-0.1,0.3-0.3c0-0.2-0.1-0.3-0.3-0.3h-7c-1,0-1.8,0.8-1.8,1.8v7c0,1,0.8,1.8,1.8,1.8h7
				c1,0,1.8-0.8,1.8-1.8v-5.9C152.5,104.6,152.4,104.4,152.2,104.4z"/>
			<path fill="#FFFFFF" d="M154.7,100.2c-0.4-0.4-1-0.4-1.4,0l-5.5,5.5c0,0-0.1,0.1-0.1,0.1l-0.8,1.7c-0.1,0.1,0,0.3,0.1,0.4
				c0.1,0.1,0.1,0.1,0.2,0.1c0,0,0.1,0,0.1,0l1.7-0.8c0,0,0.1-0.1,0.1-0.1l5.5-5.5c0.2-0.2,0.3-0.4,0.3-0.7
				C155,100.6,154.9,100.4,154.7,100.2z M154.2,101.1l-5.5,5.5c0,0,0,0,0,0l-0.9,0.4l0.4-0.9c0,0,0,0,0,0l5.5-5.5
				c0.1-0.1,0.4-0.1,0.5,0c0.1,0.1,0.1,0.2,0.1,0.2S154.3,101.1,154.2,101.1z"/>
		</g>
	</g>
</g>
<circle fill="#68A7DD" cx="103.9" cy="222.1" r="40.1"/>
<g opacity="0.54">
	<path fill="#2F5298" d="M77.9,252.6C61,238.2,59,213,73.3,196.1s39.6-18.9,56.5-4.5"/>
</g>
<circle fill="#68A7DD" cx="215.8" cy="221.3" r="40.1"/>
<circle fill="#68A7DD" cx="103.9" cy="337.4" r="40.1"/>
<circle fill="#68A7DD" cx="215.6" cy="338.8" r="40.1"/>
<g>
	<g>
		<path fill="#FFFFFF" d="M124.8,243.4V199c0-1.3-1.7-1.7-1.7-1.7H88.9c-5,0-5,5.3-5,5.3v42.7c0,1,0.8,1.8,1.8,1.8h32
			c1,0,1.8-0.8,1.8-1.8l3.6,0C125,245.3,124.8,243.4,124.8,243.4z M91,244.1h-3.1v-38.9H91L91,244.1L91,244.1z M121.3,242.6
			c0,0-0.3,1.2-1.8,1.2v-39.2c0-1-0.8-1.8-1.8-1.8h-0.9c0.1,0,0.2,0.1,0.2,0.3v20.3c0,0.1-0.1,0.2-0.2,0.3c-0.1,0-0.2,0-0.3-0.1
			l-4.9-4.9l-4.9,4.9c-0.1,0.1-0.1,0.1-0.2,0.1c0,0-0.1,0-0.1,0c-0.1-0.1-0.2-0.2-0.2-0.3V203c0-0.1,0.1-0.2,0.2-0.3l-18.9,0
			c0-1.2,1.8-1.8,1.8-1.8h30.2c1.9,0,1.8,1.7,1.8,1.7L121.3,242.6L121.3,242.6z"/>
	</g>
</g>
<g opacity="0.54">
	<path fill="#2F5298" d="M190,369.3c-16.9-14.3-18.9-39.6-4.5-56.5s39.6-18.9,56.5-4.5"/>
</g>
<g opacity="0.54">
	<path fill="#2F5298" d="M77.9,367.8C61,353.4,59,328.1,73.3,311.3c14.3-16.9,39.6-18.9,56.5-4.5"/>
</g>
<g opacity="0.54">
	<path fill="#2F5298" d="M190,251.6c-16.9-14.3-18.9-39.6-4.5-56.5c14.3-16.9,39.6-18.9,56.5-4.5"/>
</g>
<g>
	<g>
		<path fill="#FFFFFF" d="M224.7,342.5l-7.4,7.4c-0.4,0.4-1,0.7-1.6,0.7s-1.1-0.2-1.6-0.7l-4.6-4.6c-0.9-0.9-0.9-2.3,0-3.2
			c0.9-0.9,2.3-0.9,3.2,0l3.1,3.1l5.8-5.8c0.9-0.9,2.3-0.9,3.2,0C225.6,340.2,225.6,341.6,224.7,342.5L224.7,342.5z M235.6,316.8
			h-3.3l1,8.3c0.2,1.4-0.8,2.8-2.4,3.1h-27.4c-1.7-0.3-2.6-1.7-2.4-3.1l1-8.3h-3.3c-1.2,0-2.2,1-2.2,2.2v40.2c0,1.2,1,2.2,2.2,2.2
			h36.9c1.2,0,2.2-1,2.2-2.2V319C237.8,317.8,236.8,316.8,235.6,316.8L235.6,316.8z"/>
		<g>
			<path fill="#FFFFFF" d="M226.5,315.6h-6.5v-4c0-1.6-1.3-2.8-2.8-2.8c-1.6,0-2.8,1.3-2.8,2.8v4h-6.5l-0.8,7h20.3L226.5,315.6z"/>
			<path fill="#FFFFFF" d="M235.6,316.8h-3.3l1,8.3c0.2,1.4-0.8,2.8-2.4,3.1h-27.4c-1.7-0.3-2.6-1.7-2.4-3.1l1-8.3h-3.3
				c-1.2,0-2.2,1-2.2,2.2v40.2c0,1.2,1,2.2,2.2,2.2h36.9c1.2,0,2.2-1,2.2-2.2V319C237.8,317.8,236.8,316.8,235.6,316.8L235.6,316.8z
				 M224.7,342.5l-7.4,7.4c-1.3,1.2-2.6,0.5-3.2,0l-4.6-4.6c-0.9-0.9-0.9-2.3,0-3.2c0.9-0.9,2.3-0.9,3.2,0l3.1,3.1l5.8-5.8
				c0.9-0.9,2.3-0.9,3.2,0C225.6,340.2,225.6,341.6,224.7,342.5L224.7,342.5z"/>
		</g>
	</g>
</g>
<g>
	<path fill="#FFFFFF" d="M196.3,198.7v5.6H196c-2.7,0-4.8,2.2-4.8,4.8v0.3l0,0.3l1.7,11.1v0v17.7c0,2.7,2.2,4.8,4.8,4.8h35.7
		c2.7,0,4.8-2.2,4.8-4.8v-17.7v0l1.7-11.1l0-0.3v-0.3c0-2.7-2.2-4.8-4.8-4.8h-0.3v-5.6c0-0.8-0.6-1.4-1.4-1.4h-35.7
		C196.9,197.3,196.3,197.9,196.3,198.7z M199.7,200.7h31.8v3.6h-31.8V200.7z M235.1,207.7c0.8,0,1.4,0.6,1.4,1.4l-1.7,11.4v0.3v9.1
		v8.6c0,0.8-0.6,1.4-1.4,1.4h-35.7c-0.8,0-1.4-0.6-1.4-1.4v-8.6v-9.1v-0.3l-1.7-11.4c0-0.8,0.6-1.4,1.4-1.4H235.1z M203.7,228.1
		L203.7,228.1l0.2-0.5h3.1v0.5c0,0.7,0.3,1.3,0.8,1.8c0.5,0.5,1.2,0.8,2.1,0.8c0.9,0,1.5-0.2,2-0.8c0.5-0.5,0.7-1.2,0.7-2.1
		c0-1-0.2-1.7-0.7-2.2c-0.4-0.5-1.1-0.7-2.1-0.7h-2.4v-2.8h2.4c0.9,0,1.6-0.2,1.9-0.6c0.4-0.4,0.6-1.1,0.6-1.9
		c0-0.8-0.2-1.4-0.6-1.9c-0.4-0.5-1-0.7-1.8-0.7c-0.8,0-1.5,0.2-2,0.7c-0.5,0.5-0.8,1.1-0.8,1.8v0.5h-3l-0.2-0.4l0-0.1
		c0-1.5,0.5-2.7,1.7-3.8c1.1-1,2.6-1.5,4.3-1.5c1.8,0,3.2,0.5,4.2,1.4c1,0.9,1.6,2.3,1.6,4c0,0.9-0.2,1.8-0.7,2.5
		c-0.3,0.5-0.7,1-1.3,1.3c0.6,0.4,1.1,0.8,1.5,1.4c0.5,0.8,0.8,1.8,0.8,2.9c0,1.8-0.6,3.2-1.7,4.2c-1.1,1-2.6,1.5-4.3,1.5
		c-1.6,0-3-0.5-4.3-1.4C204.3,231,203.7,229.7,203.7,228.1z M222.6,217.6l-3.9,0V215l7.2-0.8v19h-3.3V217.6z"/>
</g>
<g>
	<g>
		<g>
			<path fill="#FFFFFF" d="M114.4,315.3h-1.6h-9.3h-1.9h-9.3h-1.6H79.7v11.1h0v11.1v1.6v9.5v1.6v11.1h11.1h1.6h9.3h1.9h9.3h1.6h11.1
				v-11.1v-1.6v-9.5v-1.6v-9.5v-1.6v-11.1H114.4z M112.8,316.9v9.5h-9.3v-9.5H112.8z M112.8,337.6h-9.3v-9.5h9.3L112.8,337.6
				L112.8,337.6L112.8,337.6z M112.8,348.7h-9.3v-9.5h9.3L112.8,348.7L112.8,348.7z M92.4,339.2h9.3v9.5h-9.3V339.2z M92.4,328.1
				L92.4,328.1h9.3v9.5h-9.3V328.1z M101.7,316.9v9.5h-9.3v-9.5H101.7z M81.3,316.9h9.5v9.5h-9.5V316.9z M81.2,328.1h9.5v9.5h-9.5
				V328.1z M81.2,339.2h9.5v9.5h-9.5V339.2z M90.8,359.9h-9.5v-9.5h9.5L90.8,359.9L90.8,359.9z M92.4,359.9v-9.5h9.3v9.5H92.4z
				 M112.8,359.9h-9.3v-9.5h9.3L112.8,359.9L112.8,359.9z M123.9,359.9h-9.5v-9.5h9.5V359.9z M123.9,348.7h-9.5v-9.5h9.5V348.7z
				 M123.9,337.6h-9.5v-9.5h9.5V337.6z M114.4,326.5v-9.5h9.5v9.5H114.4z"/>
			<rect x="83.5" y="320.9" fill="#FFFFFF" width="5.1" height="1.6"/>
			<rect x="94.5" y="320.9" fill="#FFFFFF" width="5.1" height="1.6"/>
			<rect x="105.6" y="320.9" fill="#FFFFFF" width="5.1" height="1.6"/>
			<rect x="83.5" y="332" fill="#FFFFFF" width="5.1" height="1.6"/>
			<rect x="83.5" y="343.2" fill="#FFFFFF" width="5.1" height="1.6"/>
			<rect x="83.5" y="354.3" fill="#FFFFFF" width="5.1" height="1.6"/>
			<rect x="116.6" y="320.9" fill="#FFFFFF" width="5.1" height="1.6"/>
		</g>
	</g>
</g>
<g>
	<g>
		<g>
			<path fill="#FFFFFF" d="M120,449.3v-3.9H92.3V467c0,0,0,3.9,3.9,3.9H121c0,0,3-0.1,3-3.9v-17.8H120z M96.3,469c-2,0-2-2-2-2
				v-19.7H118V467c0,0.9,0.3,1.5,0.7,2H96.3z"/>
			<rect x="96.3" y="451.2" fill="#FFFFFF" width="19.7" height="2"/>
			<rect x="107.1" y="463.1" fill="#FFFFFF" width="6.9" height="2"/>
			<rect x="107.1" y="459.1" fill="#FFFFFF" width="8.9" height="2"/>
			<rect x="107.1" y="455.2" fill="#FFFFFF" width="8.9" height="2"/>
			<rect x="96.3" y="455.2" fill="#FFFFFF" width="8.9" height="9.9"/>
		</g>
	</g>
</g>
<g>
	<g>
		<g>
			<path fill="#FFFFFF" d="M265.6,450.7c0.4,0,0.6-0.6,0.2-0.8l-15.3-6.8c-0.9-0.4-2,0-2.4,0.9l-5.4,12c-0.4,0.9,0,2,0.9,2.4
				l3.1,1.3c0.4,0.2,0.8-0.1,0.8-0.5v-5.1c0-2,1.6-3.5,3.5-3.5L265.6,450.7L265.6,450.7L265.6,450.7z"/>
			<path fill="#FFFFFF" d="M269.6,452.4H251c-1,0-1.9,0.8-1.9,1.9v13.1c0,1,0.8,1.9,1.9,1.9h2.5c-0.1-0.4-0.1-0.7-0.1-1.1
				c0-0.4,0-0.8,0.1-1.3h-2v-6.3h17.5v6.3h-2c0.1,0.4,0.1,0.8,0.1,1.3c0,0.4,0,0.8-0.1,1.1h2.5c1,0,1.9-0.8,1.9-1.9v-13.1
				C271.4,453.2,270.6,452.4,269.6,452.4z M269.1,456.7h-17.5v-2h17.5V456.7z"/>
			<path fill="#FFFFFF" d="M260.3,463.3c-2.7,0-4.8,2.2-4.8,4.8s2.2,4.8,4.8,4.8s4.8-2.2,4.8-4.8S262.9,463.3,260.3,463.3z
				 M261.7,470c-0.2,0.3-0.5,0.4-0.8,0.5c-0.1,0-0.2,0.1-0.2,0.3c0,0.1,0,0.3,0,0.4c0,0.1-0.1,0.2-0.2,0.2c-0.2,0-0.3,0-0.5,0
				c-0.1,0-0.2-0.1-0.2-0.2c0-0.1,0-0.2,0-0.3c0-0.2,0-0.2-0.2-0.3c-0.3,0-0.6-0.1-0.8-0.2c-0.2-0.1-0.2-0.1-0.2-0.4
				c0-0.2,0.1-0.3,0.1-0.5c0.1-0.2,0.1-0.2,0.3-0.1c0.3,0.1,0.6,0.2,0.9,0.3c0.2,0,0.4,0,0.6-0.1c0.4-0.2,0.4-0.6,0.1-0.8
				c-0.1-0.1-0.2-0.1-0.3-0.2c-0.3-0.1-0.6-0.2-0.9-0.4c-0.5-0.3-0.8-0.7-0.7-1.3c0-0.7,0.4-1.1,1-1.3c0.2-0.1,0.3-0.1,0.3-0.3
				c0-0.1,0-0.2,0-0.3c0-0.2,0-0.2,0.2-0.2c0.1,0,0.1,0,0.2,0c0.4,0,0.4,0,0.4,0.4c0,0.3,0,0.3,0.3,0.3c0.2,0,0.4,0.1,0.6,0.2
				c0.1,0,0.2,0.1,0.1,0.3c0,0.2-0.1,0.4-0.2,0.5c-0.1,0.2-0.1,0.2-0.3,0.1c-0.3-0.2-0.7-0.2-1-0.2c-0.1,0-0.2,0-0.3,0.1
				c-0.3,0.1-0.4,0.5-0.1,0.7c0.1,0.1,0.3,0.2,0.4,0.3c0.3,0.1,0.5,0.2,0.8,0.4C262,468.3,262.2,469.3,261.7,470z"/>
		</g>
	</g>
</g>
</svg>
