<!-- Generator: Adobe Illustrator 18.1.1, SVG Export Plug-In  -->
<svg version="1.1"
	 xmlns="http://www.w3.org/2000/svg" xmlns:xlink="http://www.w3.org/1999/xlink" xmlns:a="http://ns.adobe.com/AdobeSVGViewerExtensions/3.0/"
	 x="0px" y="0px" width="8.44px" height="14.17px" viewBox="0 0 8.44 14.17" enable-background="new 0 0 8.44 14.17"
	 xml:space="preserve">
<defs>
</defs>
<g>
	<path fill="#FFFFFF" d="M6.122,11.716c-0.335,0-0.585-0.049-0.749-0.147s-0.282-0.221-0.356-0.368
		c-0.425-0.875-0.824-1.713-1.196-2.515c-0.373-0.801-0.75-1.611-1.135-2.429C2.695,7.14,2.707,8.02,2.724,8.895
		c0.016,0.875,0.033,1.754,0.049,2.638c0,0.123-0.065,0.184-0.196,0.184H1.901c-0.466,0-0.795-0.092-0.987-0.276
		c-0.192-0.184-0.289-0.456-0.289-0.816c0-0.098,0.006-0.264,0.019-0.497c0.012-0.233,0.031-0.509,0.055-0.828
		C0.724,8.98,0.75,8.631,0.779,8.25c0.029-0.38,0.06-0.767,0.092-1.159C0.92,6.47,0.961,5.955,0.994,5.545s0.059-0.754,0.08-1.037
		s0.035-0.523,0.043-0.724c0.008-0.2,0.017-0.398,0.025-0.595c0-0.123,0.065-0.184,0.196-0.184h0.981
		c0.27,0,0.491,0.031,0.663,0.092c0.171,0.062,0.313,0.146,0.423,0.251c0.11,0.106,0.198,0.227,0.264,0.362
		c0.065,0.135,0.126,0.276,0.184,0.423c0.196,0.507,0.37,0.945,0.521,1.313s0.284,0.691,0.399,0.969
		c0.114,0.278,0.215,0.52,0.3,0.724c0.086,0.205,0.166,0.393,0.239,0.564c0.074,0.172,0.147,0.337,0.221,0.497
		c0.073,0.159,0.151,0.333,0.233,0.521c0-0.482-0.002-0.979-0.006-1.49c-0.004-0.511-0.008-1.01-0.012-1.497
		C5.744,5.249,5.739,4.781,5.735,4.331c-0.004-0.45-0.006-0.854-0.006-1.214c0-0.074,0.069-0.11,0.208-0.11h0.675
		c0.27,0,0.484,0.026,0.644,0.08c0.159,0.053,0.284,0.131,0.374,0.233c0.09,0.102,0.149,0.227,0.178,0.374
		C7.837,3.84,7.852,4.008,7.852,4.196c0,0.205-0.012,0.518-0.037,0.938C7.791,5.556,7.762,6.028,7.729,6.551S7.66,7.617,7.619,8.177
		c-0.041,0.561-0.08,1.078-0.117,1.552c-0.037,0.474-0.069,0.877-0.098,1.208c-0.029,0.331-0.047,0.525-0.055,0.583
		c0,0.065-0.022,0.115-0.067,0.147c-0.045,0.033-0.096,0.049-0.153,0.049H6.122z M5.815,0.736c0.171,0,0.323-0.039,0.454-0.117
		s0.248-0.162,0.35-0.251s0.194-0.174,0.276-0.251C6.977,0.039,7.054,0,7.128,0C7.169,0,7.22,0.027,7.281,0.08
		c0.062,0.054,0.092,0.187,0.092,0.399c0,0.188-0.035,0.382-0.104,0.583c-0.07,0.201-0.176,0.38-0.319,0.54
		c-0.144,0.16-0.325,0.291-0.546,0.393C6.183,2.096,5.921,2.147,5.619,2.147c-0.287,0-0.524-0.041-0.712-0.123
		S4.552,1.851,4.404,1.748C4.257,1.646,4.12,1.554,3.993,1.472C3.866,1.391,3.717,1.35,3.545,1.35c-0.171,0-0.315,0.041-0.429,0.123
		C3.001,1.554,2.899,1.646,2.81,1.748C2.719,1.851,2.64,1.943,2.57,2.024C2.5,2.106,2.425,2.147,2.343,2.147
		c-0.041,0-0.092-0.028-0.153-0.086C2.128,2.004,2.098,1.869,2.098,1.656c0-0.18,0.029-0.366,0.086-0.558s0.151-0.37,0.282-0.534
		S2.767,0.266,2.975,0.16S3.443,0,3.754,0c0.27,0,0.497,0.039,0.681,0.117s0.35,0.162,0.497,0.251
		C5.079,0.458,5.22,0.542,5.355,0.62C5.49,0.697,5.644,0.736,5.815,0.736z"/>
</g>
</svg>